<svg version="1.1" viewBox="0.0 0.0 515.6797900262467 526.9448818897638" fill="none" stroke="none" stroke-linecap="square" stroke-miterlimit="10" xmlns:xlink="http://www.w3.org/1999/xlink" xmlns="http://www.w3.org/2000/svg"><clipPath id="p.0"><path d="m0 0l515.6798 0l0 526.9449l-515.6798 0l0 -526.9449z" clip-rule="nonzero"/></clipPath><g clip-path="url(#p.0)"><path fill="#000000" fill-opacity="0.0" d="m0 0l515.6798 0l0 526.9449l-515.6798 0z" fill-rule="evenodd"/><path fill="#2756a6" d="m-8.974063E-6 260.26715c0 -143.74158 114.476875 -260.26715 255.69125 -260.26715c67.81355 0 132.84962 27.420925 180.80101 76.230484c47.951416 48.809563 74.89026 115.00953 74.89026 184.03668c0 143.74158 -114.4769 260.26715 -255.69127 260.26715c-141.21437 0 -255.69125 -116.52557 -255.69125 -260.26715zm53.28094 0c0 114.31534 90.62219 206.9862 202.41031 206.9862c111.78813 0 202.41032 -92.67087 202.41032 -206.9862c0 -114.31532 -90.62219 -206.9862 -202.41032 -206.9862c-111.78812 0 -202.41031 92.67089 -202.41031 206.9862z" fill-rule="evenodd"/><path fill="#2756a6" d="m167.41689 260.26715c0 -49.92073 39.521774 -90.389465 88.27435 -90.389465c23.41182 0 45.86476 9.523148 62.41942 26.474457c16.554626 16.951324 25.85495 39.94223 25.85495 63.91501c0 49.920715 -39.52179 90.389465 -88.27437 90.389465c-48.75258 0 -88.27435 -40.46875 -88.27435 -90.389465zm37.70021 0c0 29.099457 22.642822 52.68924 50.574142 52.68924c27.93135 0 50.574142 -23.589783 50.574142 -52.68924c0 -29.099472 -22.642792 -52.689255 -50.574142 -52.689255c-27.93132 0 -50.574142 23.589783 -50.574142 52.689255z" fill-rule="evenodd"/><path fill="#2756a6" d="m43.339947 240.50865l131.32442 0l0 39.517014l-131.32442 0z" fill-rule="evenodd"/><path fill="#2756a6" d="m337.55157 240.50865l131.32443 0l0 39.517014l-131.32443 0z" fill-rule="evenodd"/></g></svg>