<svg width="704" height="650" viewBox="0 0 704 650" fill="none" xmlns="http://www.w3.org/2000/svg">
<path d="M634.584 25H501.527L518.194 191.667C518.194 191.667 551.527 225 601.527 225C637.427 225 661.87 207.815 672.804 198.123C677.16 194.261 678.754 188.364 677.797 182.62L654.31 41.712C652.704 32.0683 644.36 25 634.584 25Z" stroke="#2756A6" stroke-width="50"/>
<path d="M501.527 25L518.194 191.667C518.194 191.667 484.86 225 434.86 225C384.86 225 351.527 191.667 351.527 191.667V25H501.527Z" stroke="#2756A6" stroke-width="50"/>
<path d="M351.527 25V191.667C351.527 191.667 318.194 225 268.193 225C218.193 225 184.86 191.667 184.86 191.667L201.527 25H351.527Z" stroke="#2756A6" stroke-width="50"/>
<path d="M201.527 25H68.4698C58.6931 25 50.3494 32.0683 48.7421 41.712L25.2571 182.621C24.3001 188.364 25.8944 194.261 30.2511 198.123C41.1818 207.815 65.6258 225 101.527 225C151.527 225 184.861 191.667 184.861 191.667L201.527 25Z" stroke="#2756A6" stroke-width="50"/>
<path d="M51.7504 225V558.333C51.7504 595.153 81.5981 625 118.417 625H585.084C621.904 625 651.75 595.153 651.75 558.333V225" stroke="#2756A6" stroke-width="50"/>
<path d="M446.194 625V425C446.194 388.18 416.347 358.333 379.527 358.333H312.86C276.042 358.333 246.194 388.18 246.194 425V625" stroke="#2756A6" stroke-width="50" stroke-miterlimit="16"/>
</svg>
