<svg version="1.1" viewBox="0.0 0.0 506.25984251968504 432.750656167979" fill="none" stroke="none" stroke-linecap="square" stroke-miterlimit="10" xmlns:xlink="http://www.w3.org/1999/xlink" xmlns="http://www.w3.org/2000/svg"><clipPath id="p.0"><path d="m0 0l506.25986 0l0 432.75067l-506.25986 0l0 -432.75067z" clip-rule="nonzero"/></clipPath><g clip-path="url(#p.0)"><path fill="#000000" fill-opacity="0.0" d="m0 0l506.25986 0l0 432.75067l-506.25986 0z" fill-rule="evenodd"/><path fill="#2756a6" d="m8.364574 21.053722c0 -8.000754 6.4858923 -14.486648 14.486647 -14.486648l463.82864 0c3.842102 0 7.5268555 1.526267 10.243622 4.243041c2.7167664 2.716773 4.243042 6.4015083 4.243042 10.243607l0 57.94485c0 8.000755 -6.485901 14.486649 -14.486664 14.486649l-463.82864 0c-8.000754 0 -14.486647 -6.4858932 -14.486647 -14.486649z" fill-rule="evenodd"/><path fill="#2756a6" d="m6.735528 187.74236c0 -8.00177 6.4867125 -14.48848 14.488479 -14.48848l463.81046 0c3.8425903 0 7.527771 1.5264587 10.244904 4.243576c2.717102 2.7171173 4.243561 6.4023285 4.243561 10.244904l0 57.95218c0 8.00177 -6.4866943 14.48848 -14.488464 14.48848l-463.81046 0c-8.001766 0 -14.488479 -6.4867096 -14.488479 -14.48848z" fill-rule="evenodd"/><path fill="#2756a6" d="m8.364574 354.4393c0 -8.000763 6.4858923 -14.486664 14.486647 -14.486664l463.82864 0c3.842102 0 7.5268555 1.5262756 10.243622 4.243042c2.7167664 2.7167969 4.243042 6.40152 4.243042 10.243622l0 57.944855c0 8.000732 -6.485901 14.486633 -14.486664 14.486633l-463.82864 0c-8.000754 0 -14.486647 -6.485901 -14.486647 -14.486633z" fill-rule="evenodd"/></g></svg>